<?xml version="1.0" encoding="UTF-8"?>
<svg version="1.1" xmlns="http://www.w3.org/2000/svg" width="204" height="192">
<path d="M0 0 C67.32 0 134.64 0 204 0 C204 63.36 204 126.72 204 192 C136.68 192 69.36 192 0 192 C0 128.64 0 65.28 0 0 Z " fill="#FEFEFE" transform="translate(0,0)"/>
<path d="M0 0 C11.89393934 8.99333403 19.98250356 20.0971548 23.125 34.875 C24.64305415 51.15084634 22.10179387 65.50473883 12.125 78.875 C9.32376509 82.13163415 6.35341878 85.04400883 3.125 87.875 C2.49464844 88.4421875 1.86429687 89.009375 1.21484375 89.59375 C-9.29520697 97.78448535 -25.99259433 100.33249845 -38.875 98.875 C-42.97261332 98.13224527 -46.89586717 97.09368028 -50.875 95.875 C-51.67679688 95.67003906 -52.47859375 95.46507812 -53.3046875 95.25390625 C-59.61227623 93.49694814 -63.99901151 90.15890417 -68.875 85.875 C-69.555625 85.32328125 -70.23625 84.7715625 -70.9375 84.203125 C-79.26528675 76.85125076 -86.06759339 63.64204428 -87.09033203 52.53686523 C-87.5809534 42.15337045 -87.79727229 32.28236908 -82.875 22.875 C-82.524375 22.11574219 -82.17375 21.35648438 -81.8125 20.57421875 C-75.88020253 8.64782905 -65.67978513 -0.93958657 -53.12646484 -5.38574219 C-35.88530968 -10.87282395 -15.28676154 -10.38185852 0 0 Z " fill="#070707" transform="translate(123.875,51.125)"/>
<path d="M0 0 C7.23030052 3.97732379 11.4383236 9.33909959 14.14453125 17.1796875 C15.36652743 24.5375857 15.49163338 33.05699872 11.39453125 39.515625 C10.77578125 40.33933594 10.77578125 40.33933594 10.14453125 41.1796875 C9.52578125 42.09621094 9.52578125 42.09621094 8.89453125 43.03125 C4.40880507 49.02071394 -1.88487587 51.85615654 -8.85546875 54.1796875 C-18.1492194 55.21990546 -25.85280189 52.86015764 -33.16796875 47.0546875 C-39.86025414 40.59317057 -42.36479725 33.92093542 -42.60546875 24.7421875 C-42.52777346 16.77798402 -40.45356654 11.05410822 -34.85546875 5.1796875 C-24.5908229 -3.45870271 -12.42526498 -5.82120653 0 0 Z " fill="#FBFBFB" transform="translate(105.85546875,70.8203125)"/>
<path d="M0 0 C3.65719422 1.96925843 7.10995684 4.21991368 9 8 C9.57425085 12.70697417 9.45554552 16.12144792 7.25 20.375 C3.19564222 25.10508407 0.45128062 26.57342123 -5.75390625 27.0625 C-10.3594448 26.93434588 -13.07052049 24.87923737 -16.3125 21.8125 C-18.48228387 18.19619356 -19.19881897 15.20833493 -19 11 C-17.59923391 6.79770172 -15.42680902 3.64042895 -11.86328125 0.92578125 C-7.98522003 -1.0010542 -4.16324345 -0.92729693 0 0 Z " fill="#0B0B0B" transform="translate(162,123)"/>
<path d="M0 0 C0.66 0.33 1.32 0.66 2 1 C-0.97 3.97 -3.94 6.94 -7 10 C-7 6.04435836 -5.59478606 4.89133304 -3 2 C-2.01 1.34 -1.02 0.68 0 0 Z " fill="#E4E4E4" transform="translate(76,72)"/>
</svg>
